<svg xmlns="http://www.w3.org/2000/svg" xmlns:xlink="http://www.w3.org/1999/xlink" width="101.7760009765625" height="14.832000732421875" viewBox="0 0 101.7760009765625 14.832000732421875" fill="none">
<g >
<path     fill="#000000"  d="M0.128005 3.072C1.024 3.392 2.144 3.92 2.736 4.288L3.312 3.392C2.72 3.024 1.568 2.56 0.720005 2.272L0.128005 3.072ZM1.248 0.879999C2.128 1.216 3.264 1.76 3.84 2.144L4.41601 1.248C3.82401 0.879999 2.672 0.367999 1.808 0.0959997L1.248 0.879999ZM0.544005 7.04L1.232 8.032C2.288 7.136 3.44 6.064 4.448 5.056L3.888 4.144C2.768 5.232 1.456 6.368 0.544005 7.04ZM6.768 7.488L6.768 9.056L0.432005 9.056L0.432005 10.128L5.664 10.128C4.256 11.52 2.016 12.752 4.76837e-06 13.36C0.256005 13.6 0.608005 14.048 0.784005 14.336C2.912 13.584 5.26401 12.128 6.768 10.448L6.768 14.768L7.984 14.768L7.984 10.464C9.472 12.144 11.808 13.568 14.032 14.272C14.208 13.968 14.56 13.52 14.832 13.264C12.72 12.688 10.496 11.536 9.104 10.128L14.32 10.128L14.32 9.056L7.984 9.056L7.984 7.488L6.768 7.488ZM4.48 3.008L4.64001 4.048L7.58401 3.648L7.58401 5.648C7.58401 6.976 8.016 7.344 9.60001 7.344C9.936 7.344 12.208 7.344 12.56 7.344C13.888 7.344 14.224 6.832 14.368 4.928C14.048 4.848 13.568 4.672 13.312 4.464C13.232 6 13.12 6.256 12.464 6.256C11.984 6.256 10.064 6.256 9.696 6.256C8.89601 6.256 8.76801 6.176 8.76801 5.632L8.76801 3.488L14.208 2.736L14.048 1.712L8.76801 2.432L8.76801 0.0799999L7.58401 0.0799999L7.58401 2.592L4.48 3.008ZM22.72 0.143999L22.72 4.064L19.808 4.064L19.808 0.496L18.56 0.496L18.56 4.064L16.224 4.064L16.224 5.232L18.56 5.232L18.56 13.744L30.16 13.744L30.16 12.576L19.808 12.576L19.808 5.232L22.72 5.232L22.72 10.304L28.224 10.304L28.224 5.232L30.608 5.232L30.608 4.064L28.224 4.064L28.224 0.32L26.976 0.32L26.976 4.064L23.92 4.064L23.92 0.143999L22.72 0.143999ZM26.976 5.232L26.976 9.2L23.92 9.2L23.92 5.232L26.976 5.232ZM32.064 12.656L32.272 13.856C33.856 13.536 36.032 13.104 38.112 12.688L38.016 11.6C35.84 12 33.552 12.432 32.064 12.656ZM32.368 6.72C32.64 6.592 33.056 6.512 35.296 6.24C34.496 7.248 33.76 8.048 33.424 8.352C32.864 8.928 32.464 9.312 32.08 9.392C32.224 9.712 32.432 10.304 32.496 10.56C32.848 10.368 33.44 10.24 37.952 9.536C37.92 9.28 37.888 8.8 37.904 8.496L34.32 8.992C35.712 7.616 37.104 5.904 38.304 4.144L37.248 3.456C36.912 4.032 36.528 4.608 36.128 5.152L33.744 5.36C34.8 4.016 35.856 2.304 36.704 0.608L35.52 0.0959997C34.72 2.016 33.392 4.048 32.976 4.576C32.592 5.104 32.288 5.472 31.968 5.536C32.112 5.856 32.304 6.448 32.368 6.72ZM38.768 1.104L38.768 2.288L44.592 2.288L44.592 6.352L39.024 6.352L39.024 12.56C39.024 14.08 39.552 14.464 41.264 14.464C41.632 14.464 44.208 14.464 44.608 14.464C46.272 14.464 46.656 13.728 46.816 11.152C46.48 11.072 45.968 10.864 45.68 10.64C45.584 12.912 45.44 13.328 44.544 13.328C43.968 13.328 41.792 13.328 41.36 13.328C40.416 13.328 40.256 13.184 40.256 12.56L40.256 7.504L44.592 7.504L44.592 8.32L45.792 8.32L45.792 1.104L38.768 1.104ZM49.024 13.504L50.352 13.504L50.352 7.008C50.352 6 50.256 4.576 50.16 3.552L50.224 3.552L51.168 6.224L53.392 12.32L54.384 12.32L56.592 6.224L57.536 3.552L57.6 3.552C57.52 4.576 57.408 6 57.408 7.008L57.408 13.504L58.784 13.504L58.784 1.776L57.008 1.776L54.768 8.048C54.496 8.848 54.256 9.68 53.952 10.496L53.888 10.496C53.6 9.68 53.344 8.848 53.04 8.048L50.8 1.776L49.024 1.776L49.024 13.504ZM66.432 13.712C67.952 13.712 69.104 13.104 70.032 12.032L69.216 11.088C68.464 11.92 67.616 12.416 66.496 12.416C64.256 12.416 62.848 10.56 62.848 7.6C62.848 4.672 64.336 2.864 66.544 2.864C67.552 2.864 68.32 3.312 68.944 3.968L69.744 3.008C69.072 2.256 67.952 1.568 66.528 1.568C63.552 1.568 61.328 3.856 61.328 7.648C61.328 11.456 63.504 13.712 66.432 13.712ZM81.376 0.351999L80.272 0.799999C81.408 3.168 83.328 5.776 85.008 7.216C85.248 6.896 85.68 6.448 85.984 6.208C84.32 4.96 82.368 2.512 81.376 0.351999ZM75.792 0.383999C74.864 2.832 73.232 5.056 71.312 6.432C71.6 6.656 72.128 7.12 72.336 7.36C72.768 7.008 73.184 6.624 73.6 6.192L73.6 7.296L76.688 7.296C76.32 10.016 75.44 12.56 71.648 13.808C71.92 14.064 72.24 14.528 72.384 14.832C76.464 13.36 77.52 10.464 77.952 7.296L82.304 7.296C82.128 11.296 81.888 12.864 81.488 13.28C81.328 13.44 81.136 13.472 80.8 13.472C80.432 13.472 79.44 13.472 78.4 13.376C78.624 13.712 78.768 14.224 78.8 14.576C79.808 14.64 80.784 14.656 81.328 14.608C81.872 14.56 82.24 14.448 82.576 14.048C83.136 13.424 83.344 11.6 83.584 6.688C83.6 6.528 83.6 6.112 83.6 6.112L73.68 6.112C75.04 4.656 76.24 2.784 77.072 0.735999L75.792 0.383999ZM88.864 3.456C89.296 4.32 89.728 5.472 89.872 6.224L90.96 5.904C90.816 5.168 90.384 4.048 89.904 3.184L88.864 3.456ZM96.64 0.911999L96.64 14.752L97.712 14.752L97.712 2.016L100.288 2.016C99.856 3.28 99.232 4.976 98.624 6.336C100.064 7.776 100.464 8.96 100.464 9.952C100.48 10.512 100.368 11.024 100.048 11.216C99.872 11.328 99.632 11.376 99.392 11.392C99.072 11.392 98.624 11.392 98.16 11.344C98.352 11.68 98.464 12.176 98.48 12.48C98.944 12.512 99.456 12.512 99.856 12.464C100.24 12.416 100.592 12.32 100.848 12.144C101.376 11.776 101.584 11.008 101.584 10.064C101.584 8.96 101.232 7.696 99.792 6.192C100.48 4.704 101.216 2.88 101.776 1.392L100.96 0.864L100.768 0.911999L96.64 0.911999ZM90.56 0.288C90.8 0.799999 91.056 1.424 91.232 1.952L87.888 1.952L87.888 3.04L95.44 3.04L95.44 1.952L92.464 1.952C92.288 1.408 91.952 0.608 91.632 -9.53674e-07L90.56 0.288ZM93.536 3.136C93.28 4.048 92.8 5.376 92.368 6.272L87.424 6.272L87.424 7.376L95.808 7.376L95.808 6.272L93.536 6.272C93.936 5.44 94.368 4.352 94.736 3.408L93.536 3.136ZM88.352 8.848L88.352 14.672L89.488 14.672L89.488 13.92L93.872 13.92L93.872 14.56L95.072 14.56L95.072 8.848L88.352 8.848ZM89.488 12.832L89.488 9.936L93.872 9.936L93.872 12.832L89.488 12.832Z">
</path>
</g>
</svg>
